# xmcd CD database file
#
# Track frame offsets:
#	150
#	33213
#	58118
#	87857
#	113029
#	137396
#	175322
#	199686
#	225936
#	246164
#	276880
#	301224
#
# Disc length: 4332 seconds
#
# Revision: 0
# Processed by: cddbd v1.5.2PL0 Copyright (c) Steve Scherf et al.
# Submitted via: CDex 1.51
#
DISCID=9410ea0c
DTITLE=Kevin Kooyumjian - Monterey Jazz
DYEAR=2005
DGENRE=Jazz
TTITLE0=Cinnamon
TTITLE1=Rio
TTITLE2=Me 'n You
TTITLE3=Jasmine
TTITLE4=Serendipity
TTITLE5=Day Of The Dead
TTITLE6=Downtown
TTITLE7=Milan
TTITLE8=Beverly Hills Blues
TTITLE9=Treasure Cove
TTITLE10=Mi Amante
TTITLE11=September Rain
EXTD=YEAR: 2005
EXTT0=
EXTT1=
EXTT2=
EXTT3=
EXTT4=
EXTT5=
EXTT6=
EXTT7=
EXTT8=
EXTT9=
EXTT10=
EXTT11=
PLAYORDER=
